<?xml version="1.0" encoding="UTF-8"?>
<!DOCTYPE svg PUBLIC "-//W3C//DTD SVG 1.1//EN" "http://www.w3.org/Graphics/SVG/1.1/DTD/svg11.dtd">
<svg xmlns="http://www.w3.org/2000/svg" version="1.1" width="440px" height="286px" style="shape-rendering:geometricPrecision; text-rendering:geometricPrecision; image-rendering:optimizeQuality; fill-rule:evenodd; clip-rule:evenodd" xmlns:xlink="http://www.w3.org/1999/xlink">
<g><path style="opacity:1" fill="#fefefe" d="M -0.5,-0.5 C 146.167,-0.5 292.833,-0.5 439.5,-0.5C 439.5,94.8333 439.5,190.167 439.5,285.5C 292.833,285.5 146.167,285.5 -0.5,285.5C -0.5,190.167 -0.5,94.8333 -0.5,-0.5 Z"/></g>
<g><path style="opacity:1" fill="#2d72f0" d="M 284.5,32.5 C 326.657,37.8279 356.49,59.8279 374,98.5C 390.307,148.664 378.473,190.831 338.5,225C 299.887,251.01 259.887,253.344 218.5,232C 180.902,206.969 163.402,171.803 166,126.5C 172.432,111.924 182.932,108.09 197.5,115C 201.194,117.687 203.694,121.187 205,125.5C 202.115,159.247 215.282,184.414 244.5,201C 278.115,213.22 306.282,205.72 329,178.5C 344.114,154.666 345.448,129.999 333,104.5C 325.282,91.4493 314.449,81.9493 300.5,76C 293.094,73.8646 285.761,71.5313 278.5,69C 270.549,63.1566 267.716,55.3232 270,45.5C 273.162,39.1641 277.996,34.8308 284.5,32.5 Z"/></g>
<g><path style="opacity:1" fill="#2d72f0" d="M 159.5,34.5 C 211.191,30.754 249.358,51.4207 274,96.5C 284.97,122.1 286.303,148.1 278,174.5C 270.132,182.009 260.966,184.175 250.5,181C 246.759,179.262 243.592,176.762 241,173.5C 240.333,169.5 240.333,165.5 241,161.5C 249.678,122.853 236.178,95.0192 200.5,78C 160.147,66.2196 130.647,79.0529 112,116.5C 102.012,150.738 111.179,178.571 139.5,200C 147.838,205.001 156.838,208.001 166.5,209C 182.817,214.434 187.317,224.934 180,240.5C 175.533,245.902 169.867,248.569 163,248.5C 123.162,242.9 94.495,221.9 77,185.5C 59.1617,137.325 68.6617,95.4916 105.5,60C 121.383,46.8907 139.383,38.3907 159.5,34.5 Z"/></g>
</svg>
